<?xml version="1.0" encoding="UTF-8" standalone="no"?>
<svg
   width="900"
   height="900"
   viewBox="0 0 900 900"
   version="1.1"
   xml:space="preserve"
   id="SVGRoot"
   xmlns="http://www.w3.org/2000/svg"
   xmlns:svg="http://www.w3.org/2000/svg"><defs
   id="defs2" />

<style
   type="text/css"
   id="style1">
g.prefab path {
  vector-effect:non-scaling-stroke;
  -inkscape-stroke:hairline;
  fill: none;
  fill-opacity: 1;
  stroke-opacity: 1;
  stroke: #00349c;
}
</style>
<g
   style="fill:#ffffff;stroke:#000000;stroke-width:2"
   class="prefab"
   id="g2">
  
  <path
   d="m 150.66522,318.16696 1.14044,1.13772 c 34.01257,-33.97434 73.56374,-61.90689 116.95661,-82.59918 49.83915,-23.7645 103.84599,-37.54937 158.97784,-40.57795 7.40161,-0.84511 14.82426,-1.49467 22.26016,-1.948 7.43501,0.4534 14.85673,1.10295 22.25745,1.948 55.13184,3.02858 109.1387,16.81345 158.97785,40.57795 43.39285,20.69229 82.94404,48.62484 116.9566,82.59918 l 1.14043,-1.14044 -99.77926,-99.77653 -99.77652,-99.77926 -99.77655,-99.776526 -99.77652,99.776526 -99.77926,99.77926 z"
   style="vector-effect:non-scaling-stroke;fill:#008080;stroke:none;stroke-width:2.79378;-inkscape-stroke:hairline"
   id="path6" /><path
   d="m 350.22103,496.14727 0.13634,0.13648 c 26.40748,-26.47933 62.24626,-41.39302 99.64282,-41.46465 37.39566,0.0724 73.23332,14.986 99.64013,41.46465 l 0.13648,-0.13648 -99.77654,-99.77652 -0.002,-0.002 z"
   style="vector-effect:non-scaling-stroke;fill:#008080;stroke:none;stroke-width:2.79378;-inkscape-stroke:hairline"
   id="path4" /><path
   d="m 250.47995,448.34597 c 35.0747,-34.9827 78.73979,-60.1166 126.6066,-72.87554 23.7753,-6.41578 48.28806,-9.69208 72.91372,-9.74548 24.62476,0.0537 49.13659,3.32995 72.911,9.74548 47.86683,12.75894 91.5319,37.89284 126.6066,72.87554 l -99.74104,-99.74108 -99.77655,-99.77651 h -0.002 l -99.77653,99.77651 z"
   style="vector-effect:non-scaling-stroke;fill:#008080;stroke:none;stroke-width:2.79378;-inkscape-stroke:hairline"
   id="path5" /><path
   d="m 26.680521,461.98765 c 0.453402,7.435 1.102954,14.85673 1.948003,22.25746 3.028579,55.13184 16.813448,109.13869 40.577969,158.97782 20.692293,43.39287 48.624827,82.94405 82.599177,116.95662 34.01256,33.97435 73.56373,61.90688 116.9566,82.59917 49.8381,23.76512 103.844,37.55091 158.97512,40.58068 7.40253,0.84515 14.82607,1.4947 22.26289,1.94801 7.4359,-0.45334 14.85856,-1.10291 22.26018,-1.94801 55.13108,-3.02977 109.137,-16.81556 158.97511,-40.58068 43.39285,-20.69229 82.94404,-48.62482 116.9566,-82.59917 33.97434,-34.01257 61.90688,-73.56375 82.59917,-116.95662 23.76511,-49.8381 37.55089,-103.844 40.58069,-158.9751 0.80755,-7.1347 1.43343,-14.28879 1.87706,-21.45534 l 0.0709,-0.80484 c -0.45328,-7.43681 -1.10286,-14.86037 -1.94801,-22.2629 -3.02978,-55.13109 -16.81557,-109.13699 -40.58068,-158.9751 l -81.45874,81.45874 -26.86553,26.86555 c 6.41669,23.77515 9.69393,48.28792 9.74819,72.91371 -0.0461,0.48394 -0.0934,0.96777 -0.14187,1.45146 -0.47779,23.88784 -3.98718,47.61831 -10.44389,70.62195 -12.38716,48.08851 -37.24374,92.05714 -72.05979,127.46602 l -0.014,0.0163 -0.0163,0.0139 c -35.4089,34.816 -79.37752,59.67261 -127.46601,72.05976 -23.46626,6.62746 -47.6925,10.18569 -72.07342,10.58579 -24.38181,-0.39986 -48.60899,-3.95809 -72.07613,-10.58579 C 329.8353,721.22989 285.86667,696.37329 250.4578,661.55728 l -0.0163,-0.0139 -0.014,-0.0163 c -34.81607,-35.40887 -59.67266,-79.3775 -72.05982,-127.46601 -6.62654,-23.46636 -10.18385,-47.69261 -10.58305,-72.07342 0.0533,-24.62564 3.32972,-49.13843 9.74547,-72.91369 L 150.66461,362.20839 69.20588,280.74965 c -23.764519,49.83914 -37.549388,103.846 -40.577965,158.97783 -0.84509,7.40163 -1.494642,14.82427 -1.948002,22.26017 z m 821.509159,0.91946 0.92218,-0.92217 0.91125,0.91397 z"
   style="vector-effect:non-scaling-stroke;fill:#008080;stroke:none;stroke-width:2.79378;-inkscape-stroke:hairline"
   id="path3" />
</g>
</svg>
